<?xml version="1.0" encoding="UTF-8"?>
<svg width="100px" height="100px" viewBox="0 0 100 100" version="1.1" xmlns="http://www.w3.org/2000/svg" xmlns:xlink="http://www.w3.org/1999/xlink">
    <!-- Generator: Sketch 51.2 (57519) - http://www.bohemiancoding.com/sketch -->
    <title>Material/icons/HomeTab3</title>
    <desc>Created with Sketch.</desc>
    <defs>
        <linearGradient x1="0%" y1="47.7070848%" x2="100%" y2="47.7070848%" id="linearGradient-1">
            <stop stop-color="#353C51" offset="0%"></stop>
            <stop stop-color="#15161E" offset="100%"></stop>
        </linearGradient>
    </defs>
    <g id="Page-1" stroke="none" stroke-width="1" fill="none" fill-rule="evenodd">
        <g id="Home" transform="translate(-826.000000, -2038.000000)" fill-rule="nonzero">
            <g id="Group-8" transform="translate(732.000000, 2038.000000)">
                <g id="Material/icons/HomeTab3" transform="translate(94.000000, 0.000000)">
                    <circle id="Oval-Copy-2" fill="#FFFFFF" cx="50" cy="50" r="50"></circle>
                    <g id="商户列表" transform="translate(24.000000, 29.000000)" fill="url(#linearGradient-1)">
                        <path d="M8.07380329,42 C7.283383,42 6.64140699,41.3631566 6.64140699,40.583908 L6.64140699,37.85311 C6.64140699,30.1810671 11.3100271,23.3753079 18.5349533,20.517211 L19.3534654,20.193415 L18.6583362,19.6537743 C15.9472332,17.5436676 14.3902882,14.3908832 14.3902882,11.0049981 C14.3902882,4.9369454 19.3794592,0 25.5097332,0 C31.6422219,0 36.6302854,4.93694535 36.6302854,11.0049981 C36.6302854,14.3908832 35.0745061,17.5436677 32.3622957,19.6537743 L31.6682739,20.193415 L32.4868444,20.517211 C39.7117123,23.375308 44.380274,30.1810672 44.3793415,37.85311 L44.3793415,40.583908 C44.3793415,41.3631566 43.7371906,42 42.9468286,42 L8.07380329,42 Z M25.5022147,22.1049329 L22.1739637,22.1049329 L24.3913601,24.3154379 L22.1739637,35.3684853 L25.5,38.6841265 L28.8260362,35.3684853 L26.6086399,24.3154379 L28.8260363,22.1049329 C28.8260363,22.1049329 26.2654756,22.1049329 25.5022147,22.1049329 Z M1.4205068,36.4737377 C0.637663183,36.4737377 0,35.8454932 0,35.072752 L0,32.1369161 C0,26.6214606 3.06085325,21.6300747 7.98929442,19.1076263 L8.56966641,18.8108472 L8.12893807,18.3305275 C6.60229975,16.6672744 5.54343266,14.3833301 5.54343266,12.1577771 C5.54343266,7.40321028 9.62631876,3.54996196 14.4130764,3.31575745 C13.6605978,4.32706085 13.704892,4.37563316 13.30432,5.52620425 C10.8779827,6.36059052 7.76094564,9.56944232 7.76094564,12.1577771 C7.76094564,14.5787233 10.0465319,16.9327954 12.2790234,17.9343959 C12.9005424,18.1675546 13.2827557,18.6662342 13.2827557,19.2371912 C13.2827557,19.8168634 11.7572247,20.3446515 11.136813,20.5496894 L10.8044891,20.6274284 C5.46236247,21.9592741 2.21751298,26.6085622 2.21751298,32.052728 L2.21751298,34.2633491 L4.43490937,34.2633491 C4.27574129,35.185061 4.45868843,35.53477 4.43490937,36.4737959 L1.4205068,36.4737959 L1.4205068,36.4737377 Z M46.5652073,36.4737377 C46.5413116,35.5368034 46.7242588,35.1871525 46.5652073,34.2632909 L48.7826037,34.2632909 L48.7826037,32.0526698 C48.7826037,26.6085041 45.5419505,21.9603199 40.206468,20.628358 L39.8253038,20.5388246 C39.2428336,20.3434895 37.7215572,19.8081483 37.7215572,19.2371331 C37.7215572,18.674775 38.1038871,18.1686004 38.6949829,17.9473524 C40.9481061,16.9359909 43.2391127,14.5787233 43.2391127,12.1577771 C43.2391127,9.56944232 40.1717901,6.41026676 37.6956218,5.52620425 C37.3426661,4.41880207 37.3307183,4.30329756 36.5869236,3.31575745 C41.3736812,3.54670832 45.456509,7.40001478 45.456509,12.1577771 C45.456509,14.384434 44.3997983,16.6683203 42.8742674,18.3305275 L42.434763,18.8108472 L43.0150185,19.1087883 C47.939205,21.6301328 51,26.5372724 51,32.0527279 L51,35.072752 C51,35.8455514 50.3633276,36.4737377 49.5806006,36.4737377 L46.6334554,36.4737377 L46.5652073,36.4737377 Z" id="Shape"></path>
                    </g>
                </g>
            </g>
        </g>
    </g>
</svg>