<?xml version="1.0" encoding="UTF-8"?>
<svg width="100px" height="100px" viewBox="0 0 100 100" version="1.1" xmlns="http://www.w3.org/2000/svg" xmlns:xlink="http://www.w3.org/1999/xlink">
    <!-- Generator: Sketch 51.2 (57519) - http://www.bohemiancoding.com/sketch -->
    <title>Material/icons/HomeTab4</title>
    <desc>Created with Sketch.</desc>
    <defs></defs>
    <g id="Page-1" stroke="none" stroke-width="1" fill="none" fill-rule="evenodd">
        <g id="Home" transform="translate(-1144.000000, -2038.000000)" fill-rule="nonzero">
            <g id="Group-7" transform="translate(1049.000000, 2038.000000)">
                <g id="Material/icons/HomeTab4" transform="translate(95.000000, 0.000000)">
                    <circle id="Oval-Copy-3" fill="#FFFFFF" cx="50" cy="50" r="50"></circle>
                    <g id="国家" transform="translate(32.000000, 29.000000)" fill="#353C51">
                        <path d="M17.5714286,12 C14.5714286,12 12,14.6493506 12,17.9220779 C12,21.1948052 14.4285714,24 17.4285714,24 C20.4285714,24 23,21.3506494 23,18.077922 C23,14.6493506 20.5714286,12 17.5714286,12 Z" id="Shape"></path>
                        <path d="M30.3342697,5.82768497 C23.7982672,-1.52260576 12.7596852,-1.97262355 5.64270473,4.77764342 C-1.47427574,11.5279104 -1.91000928,22.9283613 4.62599321,30.278652 L16.5360422,44.5292155 L16.6812867,44.6792215 C17.2622647,45.1292393 17.9884872,45.1292393 18.5694652,44.5292155 L31.2057367,29.3786164 L31.3509812,29.2286104 C36.5797832,22.1783316 36.1440496,12.427946 30.3342697,5.82768497 Z M25.8316902,17.9781655 C25.8316902,22.6283494 22.2005777,26.5285036 17.5527537,26.5285036 C13.0501742,26.5285036 9.27381725,22.7783553 9.2738172,17.9781655 C9.27381716,13.1779756 12.9049297,9.57783327 17.5527537,9.57783327 C22.0553332,9.57783327 25.6864457,13.3279816 25.8316902,17.9781655 Z" id="Shape"></path>
                    </g>
                </g>
            </g>
        </g>
    </g>
</svg>