<?xml version="1.0" encoding="UTF-8"?>
<svg width="100px" height="100px" viewBox="0 0 100 100" version="1.1" xmlns="http://www.w3.org/2000/svg" xmlns:xlink="http://www.w3.org/1999/xlink">
    <!-- Generator: Sketch 51.2 (57519) - http://www.bohemiancoding.com/sketch -->
    <title>Material/icons/HomeTab1</title>
    <desc>Created with Sketch.</desc>
    <defs>
        <linearGradient x1="0%" y1="47.7070848%" x2="100%" y2="47.7070848%" id="linearGradient-1">
            <stop stop-color="#353C51" offset="0%"></stop>
            <stop stop-color="#15161E" offset="100%"></stop>
        </linearGradient>
    </defs>
    <g id="Page-1" stroke="none" stroke-width="1" fill="none" fill-rule="evenodd">
        <g id="Home" transform="translate(-197.000000, -2038.000000)" fill-rule="nonzero">
            <g id="Group-10" transform="translate(100.000000, 2038.000000)">
                <g id="Material/icons/HomeTab1" transform="translate(97.000000, 0.000000)">
                    <circle id="Oval" fill="#FFFFFF" cx="50" cy="50" r="50"></circle>
                    <g id="用户-(1)" transform="translate(29.000000, 28.000000)" fill="url(#linearGradient-1)">
                        <path d="M41.5591463,36.0357166 C41.7051616,36.4753766 41.807653,37.0467471 41.8666207,37.7498282 C41.8956365,37.8670084 41.9101445,37.9621587 41.9101445,38.0352791 C41.9101445,38.1083995 41.9176324,38.1449597 41.9326083,38.1449597 C41.9475843,38.1449597 41.9550722,38.1524593 41.9550722,38.1674583 C41.9550722,38.1824574 41.9625602,38.2190176 41.9775361,38.2771389 C41.992512,38.3352603 42,38.4379101 42,38.5850884 C42,39.2591088 41.9415003,39.9181301 41.8245009,40.5621524 C41.7365174,41.177114 41.5900342,41.660365 41.3850512,42.0119055 C41.239036,42.2172052 40.8150302,42.4370352 40.1130339,42.6713955 C39.5860687,42.8476345 38.6790895,43.0894944 37.3920963,43.3969752 C36.1051031,43.704456 33.9626104,44.048497 30.9646183,44.4290982 C27.9666261,44.8096994 24.9321302,45 21.8611304,45 C19.0531452,45 16.1501566,44.8607899 13.1521644,44.5823698 C10.1541723,44.3039497 7.92369608,44.0475595 6.46073579,43.8131992 C4.99777551,43.5788388 3.88628138,43.3735391 3.12625342,43.1973002 C1.86827608,42.903881 1.09327218,42.6549903 0.801241717,42.4506281 C0.479259413,42.2162677 0.245260645,41.4836573 0.0992454157,40.2527967 C0.0112618942,39.5787763 -0.0182219475,39.0955253 0.0107938906,38.8030435 C0.0398097287,38.5105618 0.127793266,37.8515405 0.274744503,36.8259796 C0.450711578,35.7122992 0.904201178,34.8775076 1.6352133,34.3216049 C2.33720959,33.7647647 3.17071318,33.3251047 4.13572409,33.0026248 C7.85068846,31.7136428 10.015177,30.9960314 10.6291898,30.8497906 C11.6531684,30.5863695 12.5451717,30.1907692 13.3051997,29.6629897 C13.9192124,29.3114492 14.4017179,28.9453783 14.752716,28.5647771 C15.1037142,28.1841759 15.3522209,27.8181051 15.4982361,27.4665645 C15.6152355,27.115024 15.6737352,26.7489531 15.6737352,26.3683519 C15.6737352,26.0458721 15.6592273,25.6212111 15.6302114,25.0943691 C15.5712437,24.391288 15.3517529,23.8494469 14.9717389,23.4688457 C14.5037414,23.0291857 14.0502518,22.6190551 13.6112701,22.2384538 C13.3772714,22.0331542 13.1577805,21.7402037 12.9527976,21.3596025 C12.8067824,21.0371227 12.6457912,20.6560527 12.4698242,20.2163927 C12.3528248,19.8357915 12.2063415,19.3816012 12.0303745,18.8538217 C11.7963757,18.7947629 11.5913928,18.692113 11.4154257,18.5458722 C11.2394587,18.3996313 11.0344757,18.1943316 10.800477,17.9299732 C10.5954941,17.6665521 10.419995,17.2709518 10.2739798,16.7431723 C10.1279646,16.2453909 10.0839728,15.7912006 10.1420045,15.3806012 C10.1710203,14.9700019 10.244028,14.6184614 10.3610273,14.3259797 C10.4780267,14.0334979 10.6680337,13.7260171 10.9310483,13.4035373 C10.9020325,12.2026748 10.9605322,11.0599338 11.1065474,9.97531406 C11.2235468,9.03787263 11.4285297,8.02731079 11.7214961,6.94362853 C12.0434784,5.85994628 12.496968,4.89297546 13.0819649,4.04271609 C13.6669618,3.22245485 14.3104584,2.56343354 15.0124548,2.06565215 C15.714451,1.53787263 16.4164473,1.12774201 17.1184436,0.835260289 C17.7914241,0.541841112 18.5079283,0.322011109 19.2679563,0.17577028 C20.0579361,0.0585900932 20.7744403,0 21.4174689,0 C22.2654805,0 23.0844761,0.102649833 23.874456,0.307949498 C24.6934516,0.542309839 25.4394397,0.806199598 26.1124202,1.09961877 C26.8434323,1.48021998 27.4429371,1.84629084 27.9109346,2.19783137 C28.4378999,2.6084307 28.8768815,3.01856132 29.2278797,3.42822323 C29.9588918,4.39472533 30.5148729,5.44934691 30.8958229,6.59208797 C31.2758368,7.76388974 31.5393194,8.84804074 31.6862707,9.84454097 C31.8622378,10.9872821 31.9352454,12.1736142 31.9052935,13.4035373 C32.1102764,13.5207175 32.2712676,13.6964877 32.388267,13.9308481 C32.5342822,14.1942691 32.6367737,14.4726892 32.6957414,14.7661084 C32.754709,15.0885882 32.754709,15.4841885 32.6957414,15.9529092 C32.6077578,16.5388101 32.4612746,17.0370602 32.2562917,17.4476596 C32.0803246,17.8282608 31.8753417,18.1212112 31.6413429,18.3265109 C31.3783283,18.5608712 31.0858298,18.7221111 30.7638476,18.8102306 C30.6758641,19.2789514 30.5443567,19.7476721 30.3693256,20.2163928 C30.2523262,20.5679333 30.0913351,20.9490032 29.8863522,21.3596026 C29.6813693,21.7402038 29.4618784,22.0186239 29.2278797,22.1948629 C28.9648651,22.4292232 28.7163584,22.6345229 28.4823596,22.8107619 C28.2773767,22.9570027 28.0578859,23.132773 27.8238871,23.3380726 C27.6479201,23.5143116 27.5014368,23.7196113 27.3844374,23.9539716 C27.267438,24.2473908 27.1794545,24.5548716 27.1204868,24.876414 C27.0325033,25.316074 27.0030195,25.7702644 27.0320353,26.2389851 C27.0610511,26.7077058 27.1780505,27.1764265 27.3830334,27.6451472 C27.6170322,28.1138679 27.9680303,28.553528 28.4360278,28.9641273 C28.8750095,29.3747266 29.5185061,29.7407975 30.3665177,30.0623399 C31.0975298,30.3848197 31.9020175,30.6487095 32.7799809,30.8540092 C33.0429955,30.913068 33.5404769,31.0888382 34.272425,31.38132 C35.0043732,31.6738017 35.7723571,31.988782 36.5763769,32.3262609 C37.3803966,32.6637398 37.8558821,32.86154 38.0028333,32.9196613 C38.821829,33.2421412 39.5533091,33.6377415 40.1972737,34.1064622 C40.8412383,34.6342417 41.2947279,35.2787327 41.5577425,36.0399351 L41.5591463,36.0357166 Z" id="Shape"></path>
                    </g>
                </g>
            </g>
        </g>
    </g>
</svg>