<?xml version="1.0" encoding="UTF-8"?>
<svg width="100px" height="100px" viewBox="0 0 100 100" version="1.1" xmlns="http://www.w3.org/2000/svg" xmlns:xlink="http://www.w3.org/1999/xlink">
    <!-- Generator: Sketch 51.2 (57519) - http://www.bohemiancoding.com/sketch -->
    <title>Material/icons/HomeTab2</title>
    <desc>Created with Sketch.</desc>
    <defs>
        <linearGradient x1="0%" y1="47.7070848%" x2="100%" y2="47.7070848%" id="linearGradient-1">
            <stop stop-color="#353C51" offset="0%"></stop>
            <stop stop-color="#15161E" offset="100%"></stop>
        </linearGradient>
    </defs>
    <g id="Page-1" stroke="none" stroke-width="1" fill="none" fill-rule="evenodd">
        <g id="Home" transform="translate(-512.000000, -2038.000000)" fill-rule="nonzero">
            <g id="Group-9" transform="translate(417.000000, 2038.000000)">
                <g id="Material/icons/HomeTab2" transform="translate(95.000000, 0.000000)">
                    <circle id="Oval-Copy" fill="#FFFFFF" cx="50" cy="50" r="50"></circle>
                    <g id="麦克风-点击" transform="translate(29.000000, 29.000000)" fill="url(#linearGradient-1)">
                        <path d="M27.3004107,4.66293671e-15 C24.5239586,4.66293671e-15 21.9200078,0.779334938 19.6980246,2.13291664 L39.8765891,22.2848772 C41.2237434,20.0658235 42,17.4694077 42,14.6966161 C42,6.61614335 35.3833366,0 27.3004107,0 Z M12.6008214,14.7007178 C12.6008214,16.3824406 12.9170741,17.9575175 13.4386857,19.4259485 L3.46645804,31.7107281 C2.83805984,32.4449436 2.52180715,33.3924508 2.52180715,34.3358563 C2.52180715,35.2792617 2.83805984,36.2267689 3.46645804,37.0676303 L0.316252689,40.2177841 C0.106786624,40.426974 0,40.7428097 0,40.9519996 C0,41.1611895 0.106786624,41.4770252 0.316252689,41.6862151 C0.73518482,42.104595 1.3676902,42.104595 1.78662233,41.6862151 L4.93682772,38.5360613 C6.5098768,39.7953025 8.71543126,39.9019483 10.2925875,38.5360613 L22.5771563,28.5605743 C24.0475259,29.0855999 25.620575,29.4014356 27.3004107,29.4014356 C31.5308039,29.4014356 35.3586936,27.5884565 38.0447878,24.7008155 L17.2830041,3.97050638 C14.4079797,6.65716099 12.6008214,10.4759022 12.6008214,14.7007178 Z" id="Shape"></path>
                    </g>
                </g>
            </g>
        </g>
    </g>
</svg>