<?xml version="1.0" encoding="UTF-8"?>
<svg width="18px" height="18px" viewBox="0 0 18 18" version="1.1" xmlns="http://www.w3.org/2000/svg" xmlns:xlink="http://www.w3.org/1999/xlink">
    <!-- Generator: Sketch 51.2 (57519) - http://www.bohemiancoding.com/sketch -->
    <title>Material/icons/Social/Linkdin</title>
    <desc>Created with Sketch.</desc>
    <defs></defs>
    <g id="Material/icons/Social/Linkdin" stroke="none" stroke-width="1" fill="none" fill-rule="evenodd">
        <g id="linkdin" transform="translate(2.000000, 1.000000)" fill="#FFFFFF" fill-rule="nonzero">
            <path d="M0.229520075,4.64546259 L3.13662139,4.64546259 L3.13662139,14 L0.229520075,14 L0.229520075,4.64546259 Z M1.68307073,1.20462752e-05 C2.36753639,-0.00256131447 2.98592106,0.407361428 3.24904702,1.03808646 C3.51217299,1.66881149 3.36803785,2.39568666 2.88404411,2.87880041 C2.40005036,3.36191416 1.6718512,3.50578723 1.03997731,3.24313967 C0.408103423,2.98049211 -0.0025659854,2.36323178 1.20682696e-05,1.6800106 C-0.000326556768,1.23434374 0.176886443,0.806833115 0.492594605,0.49169897 C0.808302767,0.176564825 1.2365921,-0.000325966711 1.68307073,1.20462752e-05 Z M4.95993493,4.64546259 L7.73953181,4.64546259 L7.73953181,5.91818877 L7.77778314,5.91818877 C8.34699015,4.9541503 9.39873821,4.37796135 10.5191287,4.41637187 C13.4644813,4.41637187 14,6.35091567 14,8.8709135 L14,14 L11.1056491,14 L11.1056491,9.45636754 C11.1056491,8.36182302 11.0801482,6.97455149 9.58834624,6.9745515 C8.09654424,6.97455152 7.8542858,8.14545958 7.85428581,9.36727671 L7.85428581,14 L4.95993493,14 L4.95993493,4.64546259 Z" id="Shape"></path>
        </g>
    </g>
</svg>