<?xml version="1.0" encoding="UTF-8"?>
<svg width="18px" height="18px" viewBox="0 0 18 18" version="1.1" xmlns="http://www.w3.org/2000/svg" xmlns:xlink="http://www.w3.org/1999/xlink">
    <!-- Generator: Sketch 51.2 (57519) - http://www.bohemiancoding.com/sketch -->
    <title>Material/icons/Social/Twitter</title>
    <desc>Created with Sketch.</desc>
    <defs></defs>
    <g id="Material/icons/Social/Twitter" stroke="none" stroke-width="1" fill="none" fill-rule="evenodd">
        <g id="Twitter" transform="translate(1.000000, 2.000000)" fill="#FFFFFF" fill-rule="nonzero">
            <path d="M16.5489683,1.8008152 C16.280874,2.3642957 15.8184728,2.76525467 15.3529971,3.14388821 C15.0663141,3.3767916 14.9958849,3.61731022 14.97758,3.96865189 C14.7656776,7.98770153 13.0074084,11.0893275 9.307111,12.8124058 C6.23031731,14.245017 3.12476545,14.019587 0.146496872,12.3567684 C0.0865682421,12.3236114 0.00634807171,12.3046442 0.00228030678,12.1665293 C1.21144807,12.2518105 2.38410052,12.0974246 3.49138487,11.5903252 C3.94602893,11.3824906 4.39485513,11.1597567 4.8468504,10.7683995 C4.62071086,10.7237487 4.45785823,10.6952743 4.29741788,10.6580495 C3.17050418,10.401449 2.36314677,9.7460653 1.8601152,8.70750731 C1.73959573,8.45890045 1.74399461,8.32887377 2.08284917,8.35796303 C2.39833771,8.38506572 2.71822511,8.36373359 3.05641747,8.31331219 C1.50130021,7.69382891 0.58997822,6.63597267 0.511791925,4.89175148 C1.0016269,5.03663025 1.41393778,5.25548565 1.96166751,5.24427563 C1.25444343,4.64404331 0.774115673,3.97376024 0.608945362,3.11191366 C0.447464421,2.27016944 0.547645035,1.47534644 1.01042463,0.683550613 C1.65431451,1.40203201 2.30695482,2.04034053 3.06795858,2.55945398 C4.46637217,3.51339294 6.01032672,4.05809549 7.68766623,4.24781431 C7.9740655,4.28016725 8.11520759,4.26200419 8.07528671,3.89439147 C7.91820463,2.44673896 8.47402261,1.29967561 9.70759697,0.550544053 C10.9590979,-0.209229925 12.2823524,-0.196222518 13.4587415,0.674610984 C14.0165933,1.08772595 14.463433,1.10551062 15.0227038,0.853498193 C15.3859177,0.689983363 15.7528682,0.536117666 16.2234522,0.332729258 C15.9356813,1.11350427 15.5098427,1.6737684 14.8169031,2.14307533 C15.4644824,2.1471431 15.9746089,1.87394042 16.5189803,1.76983394 L16.5489683,1.8008152 Z" id="Shape"></path>
        </g>
    </g>
</svg>