<?xml version="1.0" encoding="UTF-8"?>
<svg width="18px" height="18px" viewBox="0 0 18 18" version="1.1" xmlns="http://www.w3.org/2000/svg" xmlns:xlink="http://www.w3.org/1999/xlink">
    <!-- Generator: Sketch 51.2 (57519) - http://www.bohemiancoding.com/sketch -->
    <title>Material/icons/Social/web</title>
    <desc>Created with Sketch.</desc>
    <defs></defs>
    <g id="Material/icons/Social/web" stroke="none" stroke-width="1" fill="none" fill-rule="evenodd">
        <g fill="#FFFFFF" fill-rule="nonzero" id="Shape">
            <path d="M17.2924592,5.4965978 C16.8391263,4.42480738 16.1902938,3.46237099 15.3639614,2.63603862 C14.5376498,1.80970624 13.5752135,1.16087366 12.503423,0.707540848 C11.3934243,0.238041391 10.2147173,0 9.00001042,0 C7.78530349,0 6.60659652,0.238041391 5.4965978,0.707540848 C4.42480738,1.16087366 3.46237099,1.80970624 2.63603862,2.63603862 C1.80970624,3.46237099 1.16087366,4.42478655 0.707540848,5.4965978 C0.238041391,6.60659652 0,7.78530349 0,9.00001042 C0,10.2147173 0.238041391,11.3934243 0.707540848,12.503423 C1.16087366,13.5751926 1.80970624,14.5376498 2.63603862,15.3639614 C3.46237099,16.1902938 4.42478655,16.8391472 5.4965978,17.2924592 C6.60659652,17.7619378 7.78530349,18 9.00001042,18 C10.2147173,18 11.3934243,17.7619378 12.503423,17.2924592 C13.5751926,16.8391263 14.5376498,16.1902938 15.3639614,15.3639614 C16.1902938,14.5376498 16.8391472,13.5752135 17.2924592,12.503423 C17.7619378,11.3934243 18,10.2147173 18,9.00001042 C18,7.78530349 17.7619378,6.60659652 17.2924592,5.4965978 Z M9.66667631,6.17886785 C10.0327176,6.17380535 10.3978213,6.1646387 10.761175,6.15036788 C11.3948496,6.1254576 12.0278695,6.08601672 12.6597353,6.03207635 C12.8713393,6.74828386 13.0064641,7.51778297 13.0636724,8.33332369 L9.66667631,8.33332369 L9.66667631,6.17886785 Z M9.66667631,4.84409856 L9.66667631,1.74928964 C10.0336967,2.00295602 10.4869254,2.37105976 10.9390498,2.8783925 C11.4269659,3.42589187 11.837153,4.04793281 12.1637151,4.73295286 C11.2900286,4.79851528 10.4529462,4.83259857 9.66667631,4.84409856 Z M8.33334452,1.82820622 L8.33334452,4.84289023 C7.61457634,4.83120425 6.89622071,4.80127103 6.17897202,4.7531195 C6.10129669,4.74788678 6.02363673,4.74242843 5.94599312,4.73674452 C6.26255525,4.07184945 6.65797146,3.46610015 7.12674175,2.93026744 C7.5493246,2.44724717 7.97511577,2.08672675 8.33334452,1.82820622 Z M6.06024299,6.08145129 C6.816996,6.13291126 7.5749469,6.1649079 8.33334452,6.17740952 L8.33334452,8.33332369 L5.04791082,8.33332369 C5.10503576,7.5191788 5.23974394,6.75082552 5.45072286,6.03572218 C5.64766013,6.05188883 5.85093073,6.06722214 6.06024299,6.08145129 Z M3.7116832,8.33332369 L1.36233176,8.33332369 C1.443915,7.38005396 1.69999803,6.46295085 2.11522672,5.6192435 C2.53724706,5.69378508 3.21597544,5.80172245 4.10287025,5.90343067 C3.89657882,6.66799228 3.76574564,7.48013718 3.7116832,8.33332369 Z M3.69378739,9.66665548 C3.73493318,10.4821545 3.89612049,11.2966953 4.17505767,12.0999652 C3.25645456,12.2036317 2.55428871,12.3149441 2.12045588,12.3914648 C1.70212303,11.5447991 1.44424833,10.623946 1.36233176,9.66663465 L3.69378739,9.66663465 L3.69378739,9.66665548 Z M5.02916085,9.66665548 L8.33334452,9.66665548 L8.33334452,11.8343196 C7.57563707,11.8468613 6.81630461,11.8786946 6.06024299,11.9301737 C5.88503486,11.9421112 5.71416005,11.9547987 5.54755608,11.9681111 C5.24918142,11.2072162 5.07549413,10.4359671 5.02916085,9.66665548 Z M8.33334452,13.1687973 L8.33334452,15.9127941 C7.97971993,15.5820236 7.57138707,15.1635866 7.16588754,14.6683164 C6.78955464,14.2086502 6.45980502,13.7371091 6.17882618,13.258568 C6.89612332,13.2104123 7.61452765,13.1804791 8.33334452,13.1687973 Z M9.66667631,16.0159815 L9.66667631,13.1675473 C10.3830713,13.1780264 11.1412996,13.207193 11.9308404,13.2618597 C11.6502782,13.7392549 11.3211952,14.2096919 10.9457165,14.6682955 C10.4968212,15.2166282 10.0444259,15.6707735 9.66667631,16.0159815 Z M10.761175,11.8612779 C10.3964793,11.8470205 10.0316168,11.8374086 9.66667631,11.8324446 L9.66667631,9.66665548 L13.082464,9.66665548 C13.0360682,10.4369671 12.8620059,11.2092579 12.5629021,11.971132 C11.9631925,11.9214749 11.3624752,11.8848483 10.761175,11.8612779 Z M14.4178583,9.66665548 L16.6376891,9.66665548 C16.5558558,10.6228627 16.2984603,11.5427158 15.8809816,12.388569 C15.2343703,12.2784404 14.5850143,12.1850828 13.9335672,12.1085902 C14.2143585,11.3025286 14.3765667,10.4850712 14.4178583,9.66665548 Z M14.3999625,8.33332369 C14.3456917,7.47684551 14.214046,6.66170062 14.0064005,5.89455568 C14.6351925,5.81945663 15.2620061,5.72862968 15.8862524,5.62216016 C16.300627,6.46507585 16.55621,7.38115812 16.6377099,8.33332369 L14.3999625,8.33332369 Z M14.42115,3.57885002 C14.6762195,3.83397396 14.9132225,4.106542 15.1304408,4.39457825 C14.6103365,4.47502542 14.0885721,4.54434673 13.5655051,4.60249467 C13.1586514,3.6278083 12.6108187,2.75020515 11.9344445,1.99128936 C11.8974315,1.94977725 11.8600271,1.90861574 11.8222363,1.86781034 C12.7844227,2.24828906 13.667505,2.82520506 14.42115,3.57885002 Z M6.35124265,1.80164375 C6.29229699,1.86399675 6.23426997,1.92721182 6.17718035,1.99126853 C5.49901447,2.75220515 4.9500151,3.63241246 4.54282808,4.61022383 C3.86872469,4.53764058 3.30366284,4.45930734 2.87145501,4.39211992 C3.08817207,4.10499906 3.32454466,3.83325689 3.57887086,3.57885002 C4.37757827,2.78014262 5.32166051,2.17985164 6.35124265,1.80164375 Z M3.57887086,14.4211291 C3.32757714,14.1697325 3.09380751,13.9014097 2.879205,13.6180467 C3.34849612,13.5451718 3.9735579,13.4594219 4.72557786,13.382047 C5.10534826,14.1225045 5.58620187,14.8477953 6.16030537,15.5447112 C6.39732452,15.8321604 6.64562254,16.1101204 6.90461701,16.3779394 C5.65968095,16.0263773 4.5187031,15.3609822 3.57887086,14.4211291 Z M11.2507161,16.3324811 C11.4939863,16.0787067 11.7276839,15.8159263 11.9513195,15.5446903 C12.5235897,14.8500245 13.0031308,14.1271295 13.3823387,13.3891512 C13.9641,13.4509718 14.5443173,13.5265484 15.1225033,13.6158176 C14.9074442,13.8999988 14.6731076,14.1690631 14.42115,14.4211083 C13.520526,15.3217739 12.4352356,15.970544 11.2507161,16.3324811 Z"></path>
        </g>
    </g>
</svg>