<?xml version="1.0" encoding="UTF-8"?>
<svg width="397px" height="161px" viewBox="0 0 397 161" version="1.1" xmlns="http://www.w3.org/2000/svg" xmlns:xlink="http://www.w3.org/1999/xlink">
    <!-- Generator: Sketch 51.2 (57519) - http://www.bohemiancoding.com/sketch -->
    <title>images/head1</title>
    <desc>Created with Sketch.</desc>
    <defs>
        <linearGradient x1="0%" y1="47.7070848%" x2="100%" y2="47.7070848%" id="linearGradient-1">
            <stop stop-color="#353C51" offset="0%"></stop>
            <stop stop-color="#15161E" offset="100%"></stop>
        </linearGradient>
        <path d="M168.358267,2.48001619e-12 C172.431432,9.2796649 184.386315,16 198.5,16 C212.613685,16 224.568568,9.2796649 228.641733,2.47646348e-12 L395,0 C396.104569,-2.02906125e-16 397,0.8954305 397,2 L397,155 C397,157.761424 394.761424,160 392,160 L5,160 C2.23857625,160 -5.50001544e-16,157.761424 -8.8817842e-16,155 L0,2 C-1.3527075e-16,0.8954305 0.8954305,2.02906125e-16 2,0 L168.358267,0 Z" id="path-2"></path>
        <linearGradient x1="50%" y1="0%" x2="50%" y2="100%" id="linearGradient-4">
            <stop stop-color="#FFFFFF" offset="0%"></stop>
            <stop stop-color="#FFFFFF" offset="38.5363981%"></stop>
            <stop stop-color="#C7C7C7" offset="54.4233201%"></stop>
            <stop stop-color="#FFFFFF" offset="100%"></stop>
        </linearGradient>
        <path d="M23.8671875,43.609375 L23.8671875,49 L21.4941406,49 L21.4941406,34.78125 L26.9433594,34.78125 C28.5123776,34.78125 29.7412065,35.1865194 30.6298828,35.9970703 C31.5185591,36.8076212 31.9628906,37.8736913 31.9628906,39.1953125 C31.9628906,40.5299546 31.5185591,41.5992798 30.6298828,42.4033203 C29.7412065,43.2073608 28.5123776,43.609375 26.9433594,43.609375 L23.8671875,43.609375 Z M23.8671875,41.7050781 L26.9433594,41.7050781 C27.82227,41.7050781 28.4830707,41.4707055 28.9257812,41.0019531 C29.3684918,40.5332008 29.5898438,39.9375036 29.5898438,39.2148438 C29.5898438,38.4921839 29.3684918,37.8899764 28.9257812,37.4082031 C28.4830707,36.9264299 27.82227,36.6855469 26.9433594,36.6855469 L23.8671875,36.6855469 L23.8671875,41.7050781 Z M39.1015625,47.1054688 L45.7617188,47.1054688 L45.7617188,49 L36.7285156,49 L36.7285156,34.78125 L39.1015625,34.78125 L39.1015625,47.1054688 Z M57.8613281,45.6796875 L52.8222656,45.6796875 L51.7285156,49 L49.2773438,49 L54.2382812,34.78125 L56.4941406,34.78125 L61.3964844,49 L58.9453125,49 L57.8613281,45.6796875 Z M53.4765625,43.6972656 L57.2167969,43.6972656 L55.390625,38.0917969 L55.3320312,38.0917969 L53.4765625,43.6972656 Z M74.7167969,36.6855469 L70.3222656,36.6855469 L70.3222656,49 L67.9492188,49 L67.9492188,36.6855469 L63.6230469,36.6855469 L63.6230469,34.78125 L74.7167969,34.78125 L74.7167969,36.6855469 Z M81.5917969,49 L79.21875,49 L79.21875,34.78125 L81.5917969,34.78125 L81.5917969,49 Z M98.3789062,49 L96.0058594,49 L89.7070312,38.7558594 L89.6484375,38.7753906 L89.6484375,49 L87.2753906,49 L87.2753906,34.78125 L89.6484375,34.78125 L95.9472656,45.0253906 L96.0058594,45.0058594 L96.0058594,34.78125 L98.3789062,34.78125 L98.3789062,49 Z M114.726562,34.78125 L114.726562,44.1464844 C114.726562,45.7285235 114.207362,46.9671179 113.168945,47.8623047 C112.130529,48.7574915 110.791024,49.2050781 109.150391,49.2050781 C107.535799,49.2050781 106.220708,48.7574915 105.205078,47.8623047 C104.189448,46.9671179 103.681641,45.7285235 103.681641,44.1464844 L103.681641,34.78125 L106.054688,34.78125 L106.054688,44.1464844 C106.054688,45.155604 106.337888,45.9352186 106.904297,46.4853516 C107.470706,47.0354845 108.219396,47.3105469 109.150391,47.3105469 C110.113937,47.3105469 110.888669,47.0354845 111.474609,46.4853516 C112.06055,45.9352186 112.353516,45.155604 112.353516,44.1464844 L112.353516,34.78125 L114.726562,34.78125 Z M127.197266,45.71875 L127.255859,45.71875 L131.367188,34.78125 L134.394531,34.78125 L134.394531,49 L132.021484,49 L132.021484,38.7851562 L131.962891,38.7753906 L128.046875,49 L126.416016,49 L122.431641,38.5800781 L122.373047,38.5996094 L122.373047,49 L120,49 L120,34.78125 L123.115234,34.78125 L127.197266,45.71875 Z M149.746094,43.609375 L149.746094,49 L147.373047,49 L147.373047,34.78125 L152.822266,34.78125 C154.391284,34.78125 155.620113,35.1865194 156.508789,35.9970703 C157.397465,36.8076212 157.841797,37.8736913 157.841797,39.1953125 C157.841797,40.5299546 157.397465,41.5992798 156.508789,42.4033203 C155.620113,43.2073608 154.391284,43.609375 152.822266,43.609375 L149.746094,43.609375 Z M149.746094,41.7050781 L152.822266,41.7050781 C153.701176,41.7050781 154.361977,41.4707055 154.804688,41.0019531 C155.247398,40.5332008 155.46875,39.9375036 155.46875,39.2148438 C155.46875,38.4921839 155.247398,37.8899764 154.804688,37.4082031 C154.361977,36.9264299 153.701176,36.6855469 152.822266,36.6855469 L149.746094,36.6855469 L149.746094,41.7050781 Z M168.271484,45.6796875 L163.232422,45.6796875 L162.138672,49 L159.6875,49 L164.648438,34.78125 L166.904297,34.78125 L171.806641,49 L169.355469,49 L168.271484,45.6796875 Z M163.886719,43.6972656 L167.626953,43.6972656 L165.800781,38.0917969 L165.742188,38.0917969 L163.886719,43.6972656 Z M183.554688,45.3476562 C183.554688,44.7552054 183.344729,44.2701842 182.924805,43.8925781 C182.504881,43.5149721 181.761073,43.1764338 180.693359,42.8769531 C179.163404,42.4537739 177.983403,41.8987665 177.15332,41.2119141 C176.323238,40.5250617 175.908203,39.6282607 175.908203,38.5214844 C175.908203,37.3756453 176.363928,36.4316443 177.275391,35.6894531 C178.186854,34.9472619 179.358717,34.5761719 180.791016,34.5761719 C182.327482,34.5761719 183.55631,34.9879516 184.477539,35.8115234 C185.398768,36.6350953 185.843099,37.6523377 185.810547,38.8632812 L185.791016,38.921875 L183.505859,38.921875 C183.505859,38.1731733 183.256838,37.5774762 182.758789,37.1347656 C182.26074,36.6920551 181.598311,36.4707031 180.771484,36.4707031 C179.970699,36.4707031 179.353843,36.6595033 178.920898,37.0371094 C178.487954,37.4147154 178.271484,37.9029918 178.271484,38.5019531 C178.271484,39.0488309 178.509112,39.4996727 178.984375,39.8544922 C179.459638,40.2093117 180.24739,40.5462224 181.347656,40.8652344 C182.838549,41.2819031 183.974605,41.8499313 184.755859,42.5693359 C185.537113,43.2887406 185.927734,44.2083277 185.927734,45.328125 C185.927734,46.5065163 185.465499,47.4472621 184.541016,48.1503906 C183.616532,48.8535191 182.402351,49.2050781 180.898438,49.2050781 C179.453118,49.2050781 178.193365,48.8209674 177.119141,48.0527344 C176.044917,47.2845014 175.524088,46.2005278 175.556641,44.8007812 L175.576172,44.7421875 L177.861328,44.7421875 C177.861328,45.5950563 178.155922,46.2379536 178.745117,46.6708984 C179.334313,47.1038433 180.052079,47.3203125 180.898438,47.3203125 C181.738285,47.3203125 182.390948,47.1429054 182.856445,46.7880859 C183.321942,46.4332665 183.554688,45.953128 183.554688,45.3476562 Z M198.349609,45.3476562 C198.349609,44.7552054 198.139651,44.2701842 197.719727,43.8925781 C197.299803,43.5149721 196.555995,43.1764338 195.488281,42.8769531 C193.958326,42.4537739 192.778324,41.8987665 191.948242,41.2119141 C191.11816,40.5250617 190.703125,39.6282607 190.703125,38.5214844 C190.703125,37.3756453 191.15885,36.4316443 192.070312,35.6894531 C192.981775,34.9472619 194.153639,34.5761719 195.585938,34.5761719 C197.122404,34.5761719 198.351232,34.9879516 199.272461,35.8115234 C200.19369,36.6350953 200.638021,37.6523377 200.605469,38.8632812 L200.585938,38.921875 L198.300781,38.921875 C198.300781,38.1731733 198.05176,37.5774762 197.553711,37.1347656 C197.055662,36.6920551 196.393233,36.4707031 195.566406,36.4707031 C194.765621,36.4707031 194.148765,36.6595033 193.71582,37.0371094 C193.282875,37.4147154 193.066406,37.9029918 193.066406,38.5019531 C193.066406,39.0488309 193.304034,39.4996727 193.779297,39.8544922 C194.25456,40.2093117 195.042312,40.5462224 196.142578,40.8652344 C197.633471,41.2819031 198.769527,41.8499313 199.550781,42.5693359 C200.332035,43.2887406 200.722656,44.2083277 200.722656,45.328125 C200.722656,46.5065163 200.260421,47.4472621 199.335938,48.1503906 C198.411454,48.8535191 197.197273,49.2050781 195.693359,49.2050781 C194.24804,49.2050781 192.988287,48.8209674 191.914062,48.0527344 C190.839838,47.2845014 190.31901,46.2005278 190.351562,44.8007812 L190.371094,44.7421875 L192.65625,44.7421875 C192.65625,45.5950563 192.950843,46.2379536 193.540039,46.6708984 C194.129235,47.1038433 194.847001,47.3203125 195.693359,47.3203125 C196.533207,47.3203125 197.18587,47.1429054 197.651367,46.7880859 C198.116864,46.4332665 198.349609,45.953128 198.349609,45.3476562 Z" id="path-5"></path>
        <filter x="-3.9%" y="-34.2%" width="107.8%" height="195.7%" filterUnits="objectBoundingBox" id="filter-6">
            <feOffset dx="0" dy="2" in="SourceAlpha" result="shadowOffsetOuter1"></feOffset>
            <feGaussianBlur stdDeviation="2" in="shadowOffsetOuter1" result="shadowBlurOuter1"></feGaussianBlur>
            <feColorMatrix values="0 0 0 0 0   0 0 0 0 0   0 0 0 0 0  0 0 0 1 0" type="matrix" in="shadowBlurOuter1"></feColorMatrix>
        </filter>
    </defs>
    <g id="Page-1" stroke="none" stroke-width="1" fill="none" fill-rule="evenodd">
        <g id="Home" transform="translate(-310.000000, -3176.000000)">
            <g id="Group-23" transform="translate(310.000000, 3176.000000)">
                <g id="Group-21">
                    <g id="Group-20">
                        <g id="images/head1">
                            <g id="Oval-3">
                                <mask id="mask-3" fill="white">
                                    <use xlink:href="#path-2"></use>
                                </mask>
                                <use id="Mask" fill="url(#linearGradient-1)" fill-rule="nonzero" xlink:href="#path-2"></use>
                                <g id="Group-22" opacity="0.495982143" style="mix-blend-mode: soft-light;" mask="url(#mask-3)">
                                    <g transform="translate(258.000000, 1.000000)">
                                        <circle id="Oval-3" stroke="#FFFFFF" stroke-width="1" fill="none" fill-rule="nonzero" cx="110" cy="110" r="22"></circle>
                                        <g id="铂金会员" stroke="none" stroke-width="1" fill="none" fill-rule="evenodd" transform="translate(100.000000, 99.000000)">
                                            <path d="M9.86130826,23 L5.71055243,19.3648255 L0,17.2894476 L1.03768896,12.1010028 L0,5.86834271 L5.97160626,4.3085461 L9.60678078,0.157790275 L14.2796443,4.05401862 L19.468089,5.61381523 L18.6914539,11.5854215 L19.7291429,17.2959739 L14.5341717,19.110298 L9.86130826,23 Z M2.07537791,15.9907048 L6.74824139,17.5505014 L9.86130826,20.6635683 L13.4964828,17.2894476 L17.6472386,15.9907048 L16.8706035,11.5788951 L17.6472386,6.90603166 L13.4964828,5.60728888 L9.86130826,2.49422201 L6.74824139,5.86834271 L2.07537791,7.16708549 L2.85201304,11.839949 L2.07537791,15.9907048 Z" id="Shape" fill="#FFFFFF" fill-rule="nonzero"></path>
                                        </g>
                                        <circle id="Oval-3-Copy" stroke="#FFFFFF" stroke-width="1" fill="none" fill-rule="nonzero" cx="110" cy="110" r="30"></circle>
                                        <circle id="Oval-3-Copy-2" stroke="#FFFFFF" stroke-width="1" fill="none" fill-rule="nonzero" cx="110.5" cy="110.5" r="39.5"></circle>
                                        <circle id="Oval-3-Copy-3" stroke="#FFFFFF" stroke-width="1" fill="none" fill-rule="nonzero" cx="111" cy="111" r="51"></circle>
                                        <circle id="Oval-3-Copy-4" stroke="#FFFFFF" stroke-width="1" fill="none" fill-rule="nonzero" cx="110.5" cy="110.5" r="64.5"></circle>
                                        <circle id="Oval-3-Copy-5" stroke="#FFFFFF" stroke-width="1" fill="none" fill-rule="nonzero" cx="112" cy="112" r="79"></circle>
                                        <circle id="Oval-3-Copy-6" stroke="#FFFFFF" stroke-width="1" fill="none" fill-rule="nonzero" cx="111" cy="111" r="95"></circle>
                                        <circle id="Oval-3-Copy-7" stroke="#FFFFFF" stroke-width="1" fill="none" fill-rule="nonzero" cx="111.5" cy="111.5" r="111.5"></circle>
                                        <circle id="Oval-4" stroke="none" fill="#FFFFFF" fill-rule="nonzero" cx="37" cy="29" r="7"></circle>
                                        <circle id="Oval-4-Copy-2" stroke="none" fill="#FFFFFF" fill-rule="nonzero" cx="116" cy="80" r="5"></circle>
                                    </g>
                                </g>
                            </g>
                            <g id="PLATINUM-PASS">
                                <use fill="black" fill-opacity="1" filter="url(#filter-6)" xlink:href="#path-5"></use>
                                <use fill="#FFFFFF" fill-rule="evenodd" xlink:href="#path-5"></use>
                                <use fill="url(#linearGradient-4)" fill-rule="evenodd" xlink:href="#path-5"></use>
                            </g>
                            <text id="USD-250" font-family="Roboto-Medium, Roboto" font-size="48" font-weight="400" letter-spacing="6" fill="#FFFFFF">
                                <tspan x="83.4101562" y="115">USD 250</tspan>
                            </text>
                            <path d="M5.39591837,160.416667 L392.604082,160.416667" id="Line" stroke="#232537" stroke-linecap="round" stroke-linejoin="round" stroke-dasharray="2,4" fill-rule="nonzero"></path>
                        </g>
                    </g>
                </g>
            </g>
        </g>
    </g>
</svg>