<?xml version="1.0" encoding="UTF-8"?>
<svg width="26px" height="26px" viewBox="0 0 26 26" version="1.1" xmlns="http://www.w3.org/2000/svg" xmlns:xlink="http://www.w3.org/1999/xlink">
    <!-- Generator: Sketch 51.2 (57519) - http://www.bohemiancoding.com/sketch -->
    <title>Material/icons/Subscribe/Email</title>
    <desc>Created with Sketch.</desc>
    <defs></defs>
    <g id="Material/icons/Subscribe/Email" stroke="none" stroke-width="1" fill="none" fill-rule="evenodd">
        <g id="邮件-(4)" transform="translate(3.000000, 6.000000)" fill="#FFFFFF" fill-rule="nonzero">
            <path d="M19.8337189,0 C19.7035096,0.0130200735 19.5730697,0.0234317485 19.4431602,0.0234317485 C13.2079424,0.0270703549 6.97300135,0.0270703549 0.738083369,0.0234317485 C0.60817387,0.0234317485 0.477987624,0.0129981542 0.347524631,0 C0.1444387,0.0739776904 0,0.260752179 0,0.480076852 L0,0.533494224 C0.279837008,0.713758677 0.587348683,0.864322456 0.834829393,1.07792619 C3.37248105,3.27231272 5.90192255,5.47502859 8.43108731,7.67827053 C9.65209362,8.74212451 10.5236611,8.74319856 11.7487495,7.67673617 C14.2609404,5.49118313 16.7714478,3.30383269 19.2915722,1.12636787 C19.5574104,0.896631527 19.8833027,0.729913212 20.1809437,0.533516144 L20.1809437,0.480098771 C20.1809668,0.260752179 20.0367818,0.0739776904 19.8337189,0" id="Shape"></path>
            <path d="M14.2198503,7.84599555 C13.8643697,7.53560668 13.6026137,7.53833281 13.2781286,7.88354278 C12.9563649,8.22552263 12.5849943,8.52225796 12.2303208,8.83317373 C10.8456896,10.0441004 9.31883385,10.0386939 7.93309567,8.81738969 C7.46991452,8.40929556 7.01111519,7.99680299 6.49283846,7.53455289 C5.06766392,8.70522909 3.67671369,9.85629552 2.2753624,10.9953578 C1.52577184,11.6046813 0.758907689,12.1932724 0,12.7908666 L0,13.5893465 C0,13.8866774 0.242291433,14.1272867 0.541569553,14.1272867 L19.6390974,14.1272867 C19.9383986,14.1272867 20.1809437,13.8866545 20.1809437,13.5893465 L20.1809437,12.6424875 C18.9385602,11.6623881 17.6917948,10.6882678 16.4559839,9.69999002 C15.69959,9.09531704 14.9486157,8.48251151 14.2198503,7.84599555" id="Shape"></path>
            <path d="M0,1.88363822 L0,11.3018293 C1.89523937,9.81838944 3.78991597,8.33497155 5.76598393,6.78766601 C3.77990326,5.09856155 1.8899399,3.49113291 0,1.88363822" id="Shape"></path>
            <path d="M20.1809437,11.3018293 L20.1809437,1.88363822 C18.2800258,3.5126905 16.3793914,5.14169807 14.4149598,6.82545074 C16.4026979,8.36868577 18.2917972,9.83535815 20.1809437,11.3018293" id="Shape"></path>
        </g>
    </g>
</svg>