<?xml version="1.0" encoding="UTF-8"?>
<svg width="26px" height="26px" viewBox="0 0 26 26" version="1.1" xmlns="http://www.w3.org/2000/svg" xmlns:xlink="http://www.w3.org/1999/xlink">
    <!-- Generator: Sketch 51.2 (57519) - http://www.bohemiancoding.com/sketch -->
    <title>Material/icons/Subscribe/Name</title>
    <desc>Created with Sketch.</desc>
    <defs>
        <path d="M19.7900697,17.6174614 C19.8596007,17.8324063 19.9084062,18.111743 19.9364861,18.4554716 C19.9503031,18.5127597 19.9572116,18.5592776 19.9572116,18.5950253 C19.9572116,18.6307731 19.9607773,18.648647 19.9679087,18.648647 C19.9750401,18.648647 19.9786058,18.6523134 19.9786058,18.6596463 C19.9786058,18.6669792 19.9821715,18.684853 19.9893029,18.7132679 C19.9964343,18.7416828 20,18.7918672 20,18.863821 C20,19.1933421 19.972143,19.5155303 19.916429,19.8303856 C19.8745321,20.1310335 19.8047782,20.3672896 19.7071672,20.5391538 C19.6376362,20.6395225 19.4357287,20.746995 19.1014447,20.8615712 C18.8505089,20.9477324 18.4186141,21.0659751 17.8057601,21.216299 C17.1929062,21.3666229 16.1726716,21.5348208 14.7450563,21.7208925 C13.317441,21.9069642 11.8724429,22 10.4100621,22 C9.07292629,22 7.69055074,21.9319418 6.26293544,21.7958253 C4.83532014,21.6597088 3.77318861,21.5343624 3.07654085,21.4197863 C2.3798931,21.3052101 1.85061018,21.2048414 1.4886921,21.1186801 C0.889655275,20.9752307 0.520605799,20.8535508 0.381543675,20.7536404 C0.228218768,20.6390642 0.116790784,20.2808991 0.0472597218,19.6791451 C0.00536280677,19.349624 -0.00867711785,19.1133679 0.00513994792,18.9703768 C0.0189570137,18.8273858 0.0608539363,18.5051976 0.130830716,18.0038123 C0.214624561,17.4593463 0.430571989,17.051226 0.778673001,16.7794513 C1.11295695,16.5072183 1.50986342,16.2922734 1.96939242,16.1346166 C3.73842308,15.5044476 4.76913192,15.1536154 5.06151895,15.0821198 C5.5491278,14.9533362 5.97389128,14.7599316 6.33580937,14.5019061 C6.6281964,14.3300418 6.8579609,14.1510739 7.02510287,13.9650022 C7.19224485,13.7789305 7.31058136,13.5999625 7.38011243,13.4280982 C7.43582642,13.256234 7.46368342,13.077266 7.46368342,12.8911943 C7.46368342,12.7335375 7.45677489,12.5259254 7.44295782,12.2683582 C7.41487797,11.9246297 7.31035853,11.6597296 7.12939949,11.4736579 C6.90654352,11.258713 6.69059609,11.0582047 6.4815572,10.872133 C6.37012923,10.7717643 6.26560978,10.628544 6.16799887,10.4424723 C6.09846781,10.2848155 6.02180536,10.0985147 5.93801151,9.88356978 C5.88229752,9.69749808 5.8125436,9.47544946 5.72874975,9.21742392 C5.61732177,9.18855073 5.51971086,9.13836637 5.43591702,9.06687083 C5.35212317,8.9953753 5.25451226,8.89500658 5.14308428,8.76576466 C5.04547337,8.63698103 4.96190239,8.44357645 4.89237132,8.18555091 C4.82284026,7.94219112 4.80189181,7.7201425 4.82952595,7.51940505 C4.84334302,7.3186676 4.87810855,7.14680334 4.93382254,7.00381227 C4.98953654,6.86082121 5.08001606,6.71049727 5.2052611,6.55284045 C5.19144404,5.96575215 5.21930103,5.40707873 5.2888321,4.87682021 C5.34454609,4.41851551 5.442157,3.92446305 5.58166483,3.39466284 C5.73498974,2.86486262 5.95093717,2.39212134 6.22950711,1.97643898 C6.50807706,1.57542237 6.81450402,1.25323417 7.14878798,1.00987438 C7.48307193,0.751848843 7.81735587,0.551340539 8.15163982,0.408349475 C8.4721067,0.264900099 8.81329918,0.157427653 9.17521727,0.0859321367 C9.55139815,0.0286440456 9.89259064,0 10.1987947,0 C10.6026097,0 10.9926077,0.0501843627 11.3687886,0.150553088 C11.7587865,0.265129255 12.1140189,0.394142026 12.4344858,0.537591401 C12.7825868,0.7236631 13.0680653,0.902631078 13.2909213,1.07449534 C13.5418571,1.27523279 13.750896,1.47574109 13.9180379,1.67602025 C14.266139,2.14853238 14.5308918,2.66412516 14.7122966,3.22279857 C14.8932556,3.79567943 15.0187235,4.32570881 15.0887003,4.8128867 C15.1724942,5.37156012 15.2072597,5.95154471 15.1929969,6.55284045 C15.2906078,6.61012854 15.3672703,6.69606067 15.4229843,6.81063684 C15.4925153,6.93942046 15.5413208,7.07553695 15.5694006,7.21898631 C15.5974805,7.37664313 15.5974805,7.57004771 15.5694006,7.79920006 C15.5275037,8.08564049 15.4577498,8.32922943 15.3601389,8.5299669 C15.276345,8.7160386 15.1787341,8.85925881 15.0673061,8.95962753 C14.9420611,9.0742037 14.8027761,9.15303211 14.6494512,9.19611276 C14.6075543,9.42526511 14.5449318,9.65441746 14.4615836,9.88356981 C14.4058696,10.0554341 14.3292072,10.2417349 14.2315963,10.4424724 C14.1339854,10.6285441 14.0294659,10.7646606 13.9180379,10.8508218 C13.7927929,10.965398 13.6744564,11.0657667 13.5630284,11.151928 C13.4654175,11.2234236 13.360898,11.3093557 13.2494701,11.4097244 C13.1656762,11.4958857 13.0959223,11.5962544 13.0402083,11.7108306 C12.9844943,11.85428 12.9425974,12.0046039 12.9145175,12.1618024 C12.8726206,12.3767473 12.8585807,12.5987959 12.8723978,12.8279483 C12.8862148,13.0571006 12.9419288,13.286253 13.0395397,13.5154053 C13.1509677,13.7445577 13.3181097,13.9595026 13.5409656,14.16024 C13.7500045,14.3609775 14.0564315,14.5399454 14.4602465,14.6971439 C14.8083475,14.8548008 15.1914369,14.9838135 15.6095147,15.0841823 C15.7347598,15.1130555 15.9716557,15.1989876 16.3202024,15.3419786 C16.6687491,15.4849697 17.0344558,15.6389601 17.4173223,15.8039498 C17.8001889,15.9689395 18.0266105,16.0656418 18.0965873,16.0940566 C18.4865852,16.2517135 18.8349091,16.445118 19.1415589,16.6742704 C19.4482087,16.9322959 19.6641561,17.2473804 19.7894012,17.6195238 L19.7900697,17.6174614 Z" id="path-1"></path>
        <filter x="-75.0%" y="-22.7%" width="250.0%" height="236.4%" filterUnits="objectBoundingBox" id="filter-2">
            <feMorphology radius="5" operator="erode" in="SourceAlpha" result="shadowSpreadOuter1"></feMorphology>
            <feOffset dx="0" dy="10" in="shadowSpreadOuter1" result="shadowOffsetOuter1"></feOffset>
            <feGaussianBlur stdDeviation="5" in="shadowOffsetOuter1" result="shadowBlurOuter1"></feGaussianBlur>
            <feColorMatrix values="0 0 0 0 0   0 0 0 0 0   0 0 0 0 0  0 0 0 0.5 0" type="matrix" in="shadowBlurOuter1"></feColorMatrix>
        </filter>
    </defs>
    <g id="Material/icons/Subscribe/Name" stroke="none" stroke-width="1" fill="none" fill-rule="evenodd">
        <g transform="translate(3.000000, 2.000000)" fill-rule="nonzero" id="Shape">
            <g>
                <use fill="black" fill-opacity="1" filter="url(#filter-2)" xlink:href="#path-1"></use>
                <use fill="#FFFFFF" xlink:href="#path-1"></use>
            </g>
        </g>
    </g>
</svg>