<?xml version="1.0" standalone="no"?><!DOCTYPE svg PUBLIC "-//W3C//DTD SVG 1.1//EN" "http://www.w3.org/Graphics/SVG/1.1/DTD/svg11.dtd"><svg t="1541747001852" class="icon" style="" viewBox="0 0 1024 1024" version="1.1" xmlns="http://www.w3.org/2000/svg" p-id="8122" xmlns:xlink="http://www.w3.org/1999/xlink" width="16" height="16"><defs><style type="text/css"></style></defs><path d="M920.456 95.744H700.44V43.88a31.152 31.152 0 1 0-62.304 0v51.864H385.888V43.88a31.144 31.144 0 1 0-62.304 0v51.864H103.544C46.448 95.744 0 142.192 0 199.288v721.168C0 977.544 46.448 1024 103.544 1024h816.912c57.104 0 103.544-46.456 103.544-103.544V199.288c0-57.096-46.448-103.544-103.544-103.544z m41.248 824.712a41.288 41.288 0 0 1-41.248 41.248H103.544a41.304 41.304 0 0 1-41.248-41.248V199.288a41.288 41.288 0 0 1 41.248-41.248h220.048v52.656a31.144 31.144 0 1 0 62.304 0v-52.656h252.256v52.656a31.152 31.152 0 1 0 62.304 0v-52.656h220.016a41.288 41.288 0 0 1 41.248 41.248v721.168z" fill="#838384" p-id="8123"></path><path d="M789.752 416.904H209.616a31.144 31.144 0 1 0 0 62.304h580.136a31.144 31.144 0 1 0 0-62.304zM505.584 615.488H209.616c-17.2 0-31.152 13.92-31.152 31.144s13.944 31.16 31.152 31.16h295.968a31.152 31.152 0 1 0 0-62.304z" fill="#838384" p-id="8124"></path></svg>