<?xml version="1.0" encoding="UTF-8"?>
<svg width="57px" height="57px" viewBox="0 0 57 57" version="1.1" xmlns="http://www.w3.org/2000/svg" xmlns:xlink="http://www.w3.org/1999/xlink">
    <!-- Generator: Sketch 51.2 (57519) - http://www.bohemiancoding.com/sketch -->
    <title>Right/FullScreen</title>
    <desc>Created with Sketch.</desc>
    <defs></defs>
    <g id="xpos_ui_BW" stroke="none" stroke-width="1" fill="none" fill-rule="evenodd">
        <g id="实时交易数据看板FUI" transform="translate(-1799.000000, -991.000000)" fill="#8CFFF9" fill-rule="nonzero">
            <g id="Right/FullScreen" transform="translate(1799.000000, 991.000000)">
                <path d="M3.3845491,0.888780043 L53.9252319,0.888780043 C54.6492379,0.888598835 55.3436425,1.17612884 55.8555921,1.6880784 C56.3675416,2.20002796 56.6550716,2.89443258 56.6548904,3.61843857 L56.6548904,54.1591213 C56.6550716,54.8831273 56.3675416,55.577532 55.8555921,56.0894815 C55.3436425,56.6014311 54.6492379,56.8889611 53.9252319,56.8887799 L3.3845491,56.8887799 C2.66054312,56.8889611 1.9661385,56.6014311 1.45418894,56.0894815 C0.942239378,55.577532 0.654709373,54.8831273 0.654890581,54.1591213 L0.654890581,3.61843857 C0.654709373,2.89443258 0.942239378,2.20002796 1.45418894,1.6880784 C1.9661385,1.17612884 2.66054312,0.888598835 3.3845491,0.888780043 Z M22.1283753,25.7430749 L25.508245,22.3632052 L18.2557256,15.102222 L21.3967286,11.9612191 L11.7273296,11.9612191 L11.7273296,21.6315585 L14.8683325,18.4905554 L22.1293158,25.7430749 L22.1283753,25.7430749 Z M25.508245,35.4265802 L22.1283753,32.0373063 L14.8673922,39.2870045 L11.7263892,36.1460015 L11.7263892,45.8163409 L21.3967286,45.8163409 L18.2557256,42.6753379 L25.508245,35.4265802 Z M35.1917503,32.0373063 L31.8024764,35.4265802 L39.0521746,42.6753379 L35.9111716,45.8163409 L45.5824514,45.8163409 L45.5824514,36.1460015 L42.4414485,39.2870045 L35.1926907,32.0373063 L35.1917503,32.0373063 Z M35.912112,11.9612191 L39.053115,15.102222 L31.8034168,22.3632052 L35.1926907,25.7430749 L42.4414485,18.4905554 L45.5824514,21.6315585 L45.5824514,11.9612191 L35.912112,11.9612191 Z" id="Shape"></path>
            </g>
        </g>
    </g>
</svg>